<svg xmlns="http://www.w3.org/2000/svg" xmlns:xlink="http://www.w3.org/1999/xlink" width="296.842" height="90.169" viewBox="0 0 296.842 90.169">
  <defs>
    <clipPath id="clip-path">
      <path id="Path_597" data-name="Path 597" d="M65,127.41h45V143H65Zm0,0"/>
    </clipPath>
  </defs>
  <g id="DRESSO" transform="translate(-40.641 -127.41)">
    <path id="Path_592" data-name="Path 592" d="M43.43,147.641c7.672,2.093,11.16,6.976,10.465,13.254a11.722,11.722,0,0,1-3.488-1.4q1.043,2.093,4.184,2.094c.7-.7.7-2.793.7-4.883,2.789,3.488,5.578,4.184,9.766,0-4.188,2.09-7.672,1.394-9.766-2.094a5.02,5.02,0,0,1,4.883-2.789,11.853,11.853,0,0,1-.7-4.883,4.29,4.29,0,0,1,4.883-.7c2.094.7,2.094,7.672,5.582,8.371-2.789-1.394-2.789-8.371-5.582-9.765-1.395-.7-3.488,0-4.883.695v4.883c-2.09,0-3.488,1.4-4.184,3.488-1.395-3.488-4.883-5.578-10.465-7.672h-.7c-.7,0-.7,0-1.4-.7a8.888,8.888,0,0,0-.7,4.187v2.094c0,6.973,5.578,10.461,16.043,10.461-6.976-2.789-11.16-6.277-13.254-11.16,0,2.094,2.094,5.582,6.977,9.07-5.582-2.094-9.07-5.582-8.371-11.164v-3.488h1.395Zm.7-.7-.7.7A.683.683,0,0,1,44.129,146.945Zm0,0" fill="#d67c33" fill-rule="evenodd"/>
    <path id="Path_593" data-name="Path 593" d="M69.938,156.012c-7.672,2.789-11.16,6.277-9.766,9.07-8.371,1.4-15.348,0-19.531-4.883,3.488,5.578,10.461,6.973,20.227,5.578,1.4,1.4,3.488,1.4,5.582.7,2.094,2.789,3.488,3.488,4.188,2.789,4.184-3.489,4.184-6.977-.7-11.86,3.488,4.883,3.488,8.371,0,11.164l-3.488-3.488c-2.094.695-5.582,2.09-5.582-1.4,0-4.184,2.793-4.184,9.07-8.371Zm0,0" fill="#d67c33" fill-rule="evenodd"/>
    <path id="Path_594" data-name="Path 594" d="M66.449,148.34c0,2.09,2.789,4.183,3.488,6.973,1.395-2.09,9.07-2.79,9.766-6.278a6.313,6.313,0,0,0-.7-3.488H74.82c-.7-.695-1.395-2.09-3.488-2.789-3.488,1.394-5.578,3.488-4.883,6.277Zm11.16,1.394c-1.395,1.4-4.883,1.4-7.672,4.184-4.184-4.883-3.488-8.371,1.395-10.461,1.395.695,2.793,1.4,2.793,2.789h4.184a4.435,4.435,0,0,1,0,4.184Zm0,0" fill="#d67c33" fill-rule="evenodd"/>
    <path id="Path_595" data-name="Path 595" d="M84.586,155.313c-3.488-4.883-7.672-4.883-13.949.7,2.789,5.582,4.184,8.371,7.672,9.07,1.395,0,6.277-.7,3.488-5.582,6.977-3.488,13.254-9.766,18.137-17.441a56.373,56.373,0,0,1-14.648,13.953ZM80.4,162.988c-3.488,2.094-6.277-.7-9.07-6.976,5.582-4.883,9.07-4.883,11.859,0-.7,1.394-1.395,2.093-3.488,2.789,1.395,2.094,1.395,4.187,0,4.883Zm0,0" fill="#d67c33" fill-rule="evenodd"/>
    <g id="Group_271" data-name="Group 271" clip-path="url(#clip-path)">
      <path id="Path_596" data-name="Path 596" d="M65.754,142.059c9.766-13.95,28.6-16.739,43.25-7.672-6.281-5.582-15.348-7.672-23.719-6.278S69.938,135.086,65.754,142.059Zm0,0" fill="#545454" fill-rule="evenodd"/>
    </g>
    <path id="Path_598" data-name="Path 598" d="M54.59,182.52q14.649-3.141,10.465-12.555a3.837,3.837,0,0,0-3.488,2.09,4.2,4.2,0,0,1,2.789-.7c0,5.582-2.789,8.371-9.066,9.766a8.252,8.252,0,0,1,.7-6.977,10.84,10.84,0,0,1,5.582-4.183,11.085,11.085,0,0,0-5.582,6.976q2.1-5.232,10.465-8.371a10.449,10.449,0,0,0-10.465,3.485c-2.789,2.793-2.789,6.976-1.395,11.164Zm0,0" fill="#d67c33" fill-rule="evenodd"/>
    <path id="Path_599" data-name="Path 599" d="M73.426,172.055c-5.582,4.187-10.465,9.769-11.16,17.441-.7,6.977,2.09,14.649,7.672,18.836l-.7,9.066c.7-3.488.7-6.277,1.4-8.371A29.454,29.454,0,0,0,88.773,217.4c16.743,1.4,20.926-5.578,20.926-9.765a5.774,5.774,0,0,0-4.883-5.582c2.789,2.793,2.789,5.582,2.094,7.676-.7,4.183-8.371,7.671-17.441,6.976,4.883-17.441,11.859-25.812,21.625-25.113,9.765,0,13.254-3.488,9.765-9.766,2.094-2.094,2.793-3.488,1.4-4.187,2.09-.7,2.09-2.789,0-4.883,0,0,0-.7,1.394-1.4,2.789-2.093,2.789-3.488,0-5.582-4.882-3.488-6.976-6.976-6.976-10.464.7-5.579-1.4-11.161-5.582-16.739a25.762,25.762,0,0,1,4.187,14.649c0,5.578,2.789,9.765,7.672,13.254.7.695,1.395.695,1.395,1.394s-2.789,2.094-2.789,4.184c2.093,2.793,1.394,4.187-3.489,5.582,4.883-.7,5.582.7,2.094,3.488,2.789,6.277.695,9.07-7.676,8.371-10.461-.7-18.136,8.371-23.715,27.207a26.845,26.845,0,0,1-16.742-7.676c3.488-13.949,6.976-16.043,16.043-27.9,5.582-6.977,13.953-15.348,18.836-25.113,6.278,0,8.371-.7,6.977-2.094l-6.282.7c2.793-4.883,3.489-11.16,3.489-16.742-.7,8.371-2.789,16.043-7.672,22.324-14.649,17.438-27.207,32.086-32.09,48.133-10.465-12.559-9.766-25.113,4.883-35.578,19.535-13.254,30-23.02,30-33.484-1.395,12.558-13.949,20.929-32.086,33.484Zm0,0" fill="#545454" fill-rule="evenodd"/>
    <path id="Path_600" data-name="Path 600" d="M108.305,162.289a47.9,47.9,0,0,0,5.582,2.094l-.7-1.395c2.093,0,3.488-.7,3.488-2.093a3.834,3.834,0,0,1-3.488-2.094C113.887,160.9,112.488,162.289,108.305,162.289Zm0,0" fill="#545454" fill-rule="evenodd"/>
    <g id="Group_274" data-name="Group 274">
      <g id="Group_273" data-name="Group 273">
        <g id="Group_272" data-name="Group 272">
          <path id="Path_601" data-name="Path 601" d="M12.641,5.73V9.746h-.73c-1.371,0-3.629-.7-2.836-2.1C9.488,6.816,11.465,5.988,12.641,5.73Zm1.371,3.824.094-2.9c.1-1.051-.348-1.211.672-1.371A23.864,23.864,0,0,1,18.5,4.938a18.2,18.2,0,0,1,2.8.223,14.929,14.929,0,0,0,2,.316C22.609,6.465,16.113,9.555,14.012,9.555ZM24.617,4.648a5.3,5.3,0,0,1-1.309-.191,29.857,29.857,0,0,0-5.125-.508,21.157,21.157,0,0,0-3.059.223c-.414.063-.668.129-.828.129-.477,0,.066-.637.035-4.109l.445-6.656c.285-2.1.414-4.043.793-6.367.414-2.645.828-4.555,1.309-7.1.223-1.18.316-1.051,2.324-1.945l3.184-1.113a20.112,20.112,0,0,1,5.606-.891,10.333,10.333,0,0,1,4.141.762c6.688,2.773,4.934,12.2,2.035,17.23a37.857,37.857,0,0,1-2.387,3.66,6.8,6.8,0,0,0-.445.543,40.884,40.884,0,0,1-3.344,3.629,7.127,7.127,0,0,0-.574.445l-1.59,1.371C25.7,3.852,24.617,4.648,24.617,4.648Zm-7.1-27.164c0-.539-.1-.445-.512-.668-.762.191-.793.8-1.082,1.4-.16.445-.8.7-1.434,1.051a37.6,37.6,0,0,0-5.063,3.852,44.455,44.455,0,0,0-6.4,7.516C1.559-7.2-.637-3.09-.637-.191A2.122,2.122,0,0,0,1.211,2.2c.348,0,.574-.16.508-.449C1.559,1.02.352,1.879.352-.191c0-3.789,4.172-9.777,6.781-12.769l2.1-2.23a36.212,36.212,0,0,1,6.18-4.68l-1.148,5.605A119.568,119.568,0,0,0,13.055-1.941c0,1.02-.223,2.227-.223,3.246,0,1.117-.094,2.07-.094,3.25-1.242.637-4.871,1.02-4.871,3.789,0,1.656,2.356,2.516,3.789,2.516.285,0,.477-.031.637-.031.254,0,.316.16.414.953a4.98,4.98,0,0,0,.16,1.242c.188.543.477.734.731.734.285,0,.543-.223.508-.445l-.125-2.551A14.111,14.111,0,0,0,17.164,10,30.629,30.629,0,0,0,23.82,6.75c.7-.477.957-.762,1.4-.762A2.807,2.807,0,0,1,26.4,6.4c.606.316.481.57.926.859,1.02-.7-.129-1.754-1.117-1.977.129-.414.48-.605,1.02-.984.383-.32.734-.605,1.117-.926A27.285,27.285,0,0,0,30.859.859l.953-1.051a25.937,25.937,0,0,0,5.922-11.3c.863-3.758.574-8.09-2.289-10.953a10.215,10.215,0,0,0-7.484-2.738,20.1,20.1,0,0,0-5.574.859l-3.629,1.367A3.41,3.41,0,0,1,17.516-22.516Zm0,0" transform="translate(140.975 163.536)" fill="#d67c33"/>
        </g>
      </g>
    </g>
    <g id="Group_277" data-name="Group 277">
      <g id="Group_276" data-name="Group 276">
        <g id="Group_275" data-name="Group 275">
          <path id="Path_602" data-name="Path 602" d="M.031-3.887c0,1.086-.16,2.645,1.3,2.645.988,0,2.484-2.422,3-3.312A4.88,4.88,0,0,1,5.223-5.8c0,1.531.129,4.172,2.23,4.172A4.707,4.707,0,0,0,10.316-3.09c.383-.348,1.848-1.559,1.848-2.1,0-.352-.254-.414-.508-.414-.605,0-2.707,2.961-4.109,2.961-.605,0-1.082-.539-1.273-2.07-.094-.828.32-2.93-.543-2.93-.6,0-.793.512-1.207,1.117l-1.914,2.8c-.316.414-.668,1.02-1.176,1.18C.957-4.68,2.9-8.023,2.9-8.152c0-.285-.1-.285-.129-.508a1.105,1.105,0,0,0-.57-.16.918.918,0,0,0-.7.383A8.967,8.967,0,0,0,.031-3.887Zm0,0" transform="translate(178.132 163.536)" fill="#d67c33"/>
        </g>
      </g>
    </g>
    <g id="Group_280" data-name="Group 280">
      <g id="Group_279" data-name="Group 279">
        <g id="Group_278" data-name="Group 278">
          <path id="Path_603" data-name="Path 603" d="M4.332-14.586a12.541,12.541,0,0,1-1.148,3.566c-.316.637-.859,1.309-.223,1.309.8,0,2.453-4.43,2.453-5.289a.7.7,0,0,0-.7-.668C4.172-15.668,3.6-14.777,4.332-14.586Zm0,0" transform="translate(188.894 163.536)" fill="#d67c33"/>
        </g>
      </g>
    </g>
    <g id="Group_283" data-name="Group 283">
      <g id="Group_282" data-name="Group 282">
        <g id="Group_281" data-name="Group 281">
          <path id="Path_604" data-name="Path 604" d="M1.465,8.5c-.254,0-.254-.066-.508-.1C.445,6.145,3.215,3.313,4.648,1.879A7.73,7.73,0,0,1,6.5.414,36.414,36.414,0,0,1,4.777,5.191C4.234,6.273,2.836,8.5,1.465,8.5ZM17-6.816a5.766,5.766,0,0,1-1.207.383,34.931,34.931,0,0,0-3.312,1.465L9.363-3.25a5.4,5.4,0,0,1-1.082.641c.063-.641.6-2.551.762-3.25a61.7,61.7,0,0,1,2.516-7.516l1.309-2.8c.891-1.785,4.234-7.644,6.461-7.773.7,1.086,0,4.238-.223,5.383-.57,2.77-1.43,7.008-1.781,9.746C17.227-8.184,17.164-7.418,17-6.816ZM1.273,9.586c4.715,0,6.371-10.16,6.719-10.508a8.033,8.033,0,0,1,1.117-.8,34.851,34.851,0,0,1,4.934-2.77c1.148-.574,2.168-.863,2.769-1.148a18.147,18.147,0,0,1-.223,2.324l-.984,9.3c-.066,1.465-.289,3.789-.289,4.934,0,.574-.094.668-.094,1.18-.062.953-.191,4.617.762,4.617.926,0,.512-.8.512-2.707,0-1.082.094-1.941.094-2.9L18.121-5.414c.063-.668.094-.668.7-.8A9.377,9.377,0,0,1,20.285-6.4c.32,0-.062.16.508.16.672,0,.828-1.176-.379-1.176-.8,0-1.309.188-2.008.188a12.413,12.413,0,0,1,.223-1.879c.414-2.832,2.07-10.824,2.07-12.863,0-.988.16-2.992-1.465-2.992-1.465,0-3.25,2.1-3.949,2.992C11.082-16.848,8.5-8.852,7.1-2.293c-.191.922-.352.766-1.656,1.848C3.375,1.273-.223,4.871-.32,7.707A1.7,1.7,0,0,0,1.273,9.586Zm0,0" transform="translate(195.548 163.536)" fill="#d67c33"/>
        </g>
      </g>
    </g>
    <g id="Group_286" data-name="Group 286">
      <g id="Group_285" data-name="Group 285">
        <g id="Group_284" data-name="Group 284">
          <path id="Path_605" data-name="Path 605" d="M.031-3.887c0,1.086-.16,2.645,1.3,2.645.988,0,2.484-2.422,3-3.312A4.88,4.88,0,0,1,5.223-5.8c0,1.531.129,4.172,2.23,4.172A4.707,4.707,0,0,0,10.316-3.09c.383-.348,1.848-1.559,1.848-2.1,0-.352-.254-.414-.508-.414-.605,0-2.707,2.961-4.109,2.961-.605,0-1.082-.539-1.273-2.07-.094-.828.32-2.93-.543-2.93-.6,0-.793.512-1.207,1.117l-1.914,2.8c-.316.414-.668,1.02-1.176,1.18C.957-4.68,2.9-8.023,2.9-8.152c0-.285-.1-.285-.129-.508a1.105,1.105,0,0,0-.57-.16.918.918,0,0,0-.7.383A8.967,8.967,0,0,0,.031-3.887Zm0,0" transform="translate(215.289 163.536)" fill="#d67c33"/>
        </g>
      </g>
    </g>
    <g id="Group_289" data-name="Group 289">
      <g id="Group_288" data-name="Group 288">
        <g id="Group_287" data-name="Group 287">
          <path id="Path_606" data-name="Path 606" d="M.383,5.254A6.5,6.5,0,0,1,2.07,1.625,9.165,9.165,0,0,1,3.727-.062a7.753,7.753,0,0,1-.191,2.324A6.639,6.639,0,0,1,1.688,5.477,1.7,1.7,0,0,1,.8,5.922C.574,5.922.383,5.73.383,5.254ZM.094-5.16c0,1.687,2.23,2.23,3.219,4.047-.477.762-3.949,3.5-3.949,6.367C-.637,6.4,0,7.008.891,7.008A4.011,4.011,0,0,0,3.98,4.715c2.133-3.633.828-5.48.957-5.926A17.2,17.2,0,0,1,7.609-3.344l2.168-1.5c.73-.414.8-.957.285-.957a2.3,2.3,0,0,0-1.242.512L5.859-3.215A15.5,15.5,0,0,1,4.426-2.1C2.77-4.586.383-4.488,2.07-6.4c.477-.539.383-.379,1.145-.57.191-.8-.094-1.117-.539-1.117A3.178,3.178,0,0,0,.094-5.16Zm0,0" transform="translate(226.05 163.536)" fill="#d67c33"/>
        </g>
      </g>
    </g>
    <g id="Group_292" data-name="Group 292">
      <g id="Group_291" data-name="Group 291">
        <g id="Group_290" data-name="Group 290">
          <path id="Path_607" data-name="Path 607" d="M1.465-5.766A3.647,3.647,0,0,1,3.6-7.961C3.5-6.941,2.262-6.18,1.465-5.766ZM.031-5A2.983,2.983,0,0,0,.766-2.547a2.523,2.523,0,0,0,1.844.762c1.945,0,4.141-1.941,5.32-3.117.285-.352.285-.383.191-.863-.957,0-.445.129-1.754,1.148-.223.16-.316.285-.57.477a6.185,6.185,0,0,1-3.09,1.4,1.469,1.469,0,0,1-1.051-.414A2.009,2.009,0,0,1,1.18-4.871,4.738,4.738,0,0,0,3.82-6.434c.988-1.242.988-2.516-.414-2.516C1.879-8.949.031-6.594.031-5Zm5.7-7.9c0,.8-1.051,2.1-1.559,2.707-.16.16-.445.637-.828.637a.511.511,0,0,1-.383-.156c-.445-.414.063-1.117.289-1.4C3.852-12,4.266-13.5,5.223-13.5,5.477-13.5,5.73-13.152,5.73-12.9Zm0,0" transform="translate(235.253 163.536)" fill="#d67c33"/>
        </g>
      </g>
    </g>
    <g id="Group_295" data-name="Group 295">
      <g id="Group_294" data-name="Group 294">
        <g id="Group_293" data-name="Group 293">
          <path id="Path_608" data-name="Path 608" d="M14.555-6.336c.348-.7,2.387-3.441,3.055-4.492,1.879-3.09,4.172-7.8,3.6-11.367-.285-1.687-1.113-2.516-2.133-2.516-2.516,0-5.7,4.934-7.035,7.164a58.372,58.372,0,0,0-4.492,10.7L7.1-5.414A4.917,4.917,0,0,1,6.594-3.98a7.571,7.571,0,0,1,.188-1.4l.48-4.105c.285-1.914.57-3.727.668-5.637a28.055,28.055,0,0,0,.223-2.867c0-1.719.223-4.012-.859-5.352a1.169,1.169,0,0,0-.957-.539c-1.5,0-3.152,3.277-3.6,4.234L1.75-17.484A25.73,25.73,0,0,0,.129-11.3,8.122,8.122,0,0,0,.414-7.2a1.419,1.419,0,0,0,1.371.953,3.877,3.877,0,0,0,.793-.094c.289-1.273-.828-.191-1.3-1.434a9.738,9.738,0,0,1-.062-3.855,23.922,23.922,0,0,1,3.6-9.395c.32-.57.8-1.465,1.5-1.527.16.605.254,1.082.383,1.785.063.605,0,1.59,0,2.262A24.506,24.506,0,0,1,6.3-14.488C5.766-9.172,4.9-3.98,4.426,1.4L3.82,7.387c-.062.828-.191,1.273.605,1.434.477-.223.512-.285.637-.828l.605-4.043c.32-1.719.8-3.215,1.211-4.871,1.594-6.309,5.062-16.4,9.555-20.891.57-.574,1.688-1.687,2.481-1.687.414,0,.766.316.926,1.145.574,2.867-1.594,7.645-2.578,9.426-1.531,2.613-3.281,4.84-4.969,7.293-.223.285-.383.543-.606.859-.352.414-1.273,1.656-.223,1.848.094,0,.16.031.223.031.191,0,.223-.094.352-.16,1.43-.922,1.688-1.781,4.328-2.641a3.5,3.5,0,0,1,1.082-.191c3,0,3.156,5.031,2.774,7.484v.094c-.16.574-.668.7-1.625,1.242A77.082,77.082,0,0,0,9.043,8.883a13.322,13.322,0,0,0-3.6,4.141c-1.816,3.5.031,6.18,3.152,6.18,1.91,0,4.3-.988,6.625-3.312A22.637,22.637,0,0,0,21.3,3.918c.383-1.879,0-1.117,2.324-2.836A13.044,13.044,0,0,0,25.063-.094l2.676-2.484a2.784,2.784,0,0,0,.605-.605,2.641,2.641,0,0,0,.6-.734,2.909,2.909,0,0,0,.641-.73c.316-.414.285-.48.156-.988h-.191c-.828,0-.793.383-1.367,1.02-.766.8-2.008,2.1-2.8,2.77L23.852-.574A9.971,9.971,0,0,1,21.688.957c0-3.441-.191-7.8-3.949-8.09-.1,0-.191-.031-.289-.031A12.152,12.152,0,0,0,14.555-6.336ZM8.535,18.121c-2.676,0-3.727-2.613-1.148-5.926A17.916,17.916,0,0,1,9.84,9.777l2.8-2.039,7.293-4.172A22,22,0,0,1,18.5,8.535c-1.59,3.566-3.723,7.035-7.324,8.852A6.559,6.559,0,0,1,8.535,18.121Zm0,0" transform="translate(258.631 163.536)" fill="#545454"/>
        </g>
      </g>
    </g>
    <g id="Group_298" data-name="Group 298">
      <g id="Group_297" data-name="Group 297">
        <g id="Group_296" data-name="Group 296">
          <path id="Path_609" data-name="Path 609" d="M.031-3.887c0,1.086-.16,2.645,1.3,2.645.988,0,2.484-2.422,3-3.312A4.88,4.88,0,0,1,5.223-5.8c0,1.531.129,4.172,2.23,4.172A4.707,4.707,0,0,0,10.316-3.09c.383-.348,1.848-1.559,1.848-2.1,0-.352-.254-.414-.508-.414-.605,0-2.707,2.961-4.109,2.961-.605,0-1.082-.539-1.273-2.07-.094-.828.32-2.93-.543-2.93-.6,0-.793.512-1.207,1.117l-1.914,2.8c-.316.414-.668,1.02-1.176,1.18C.957-4.68,2.9-8.023,2.9-8.152c0-.285-.1-.285-.129-.508a1.105,1.105,0,0,0-.57-.16.918.918,0,0,0-.7.383A8.967,8.967,0,0,0,.031-3.887Zm0,0" transform="translate(287.128 163.536)" fill="#545454"/>
        </g>
      </g>
    </g>
    <g id="Group_301" data-name="Group 301">
      <g id="Group_300" data-name="Group 300">
        <g id="Group_299" data-name="Group 299">
          <path id="Path_610" data-name="Path 610" d="M.891-1.656c1.242,0,2.516-4.074,3.566-4.777.289.605-.156,1.879.48,3.789.285.859.828,1.723,1.813,1.723a2.215,2.215,0,0,0,.605-.1c.734-.191,1.754-1.465,2.2-2.039.191-.254,2.07-2.609.828-2.609-.574,0-2.262,3.789-3.535,3.789-1.18,0-1.242-2.836-1.242-3.629L5.414-7.293c-.16-.352-.383-.508-.605-.508C4.043-7.8,3.09-6.18,2.9-5.828L1.371-3.5c0-2.484,2.066-5.477.668-5.477C.828-8.98-1.145-1.656.891-1.656Zm0,0" transform="translate(297.89 163.536)" fill="#545454"/>
        </g>
      </g>
    </g>
    <g id="Group_304" data-name="Group 304">
      <g id="Group_303" data-name="Group 303">
        <g id="Group_302" data-name="Group 302">
          <path id="Path_611" data-name="Path 611" d="M1.113-2.324A9.093,9.093,0,0,1,2.9-7.8a1.929,1.929,0,0,1,1.4-.957c-.035.477-2.359,6.719-3.059,6.719C1.145-2.039,1.113-2.1,1.113-2.324ZM4.746-9.617c-.48,0-.289-.094-.637-.094-2.9,0-5.668,8.789-3,8.789C2.324-.922,2.93-2.516,3.375-3.5L4.488-6.211a.637.637,0,0,1,.258-.414c0,1.273-.605,11.977.828,11.977,1.145,0,.348-.7.316-2.773C5.828-2.77,5.414-8.375,6.973-13.566c.191-.766,1.371-3.949.191-3.949a1.355,1.355,0,0,1-.156.031c-.766.16-1.117,2.422-1.277,3.09l-.668,3.6A3.884,3.884,0,0,0,4.746-9.617Zm0,0" transform="translate(307.442 163.536)" fill="#545454"/>
        </g>
      </g>
    </g>
    <g id="Group_307" data-name="Group 307">
      <g id="Group_306" data-name="Group 306">
        <g id="Group_305" data-name="Group 305">
          <path id="Path_612" data-name="Path 612" d="M.063-2.453c0,2.07.066,5.988,1.785,5.988.8,0,1.4-1.211,1.75-1.75.7-1.18,1.562-3.41,2.23-4.777A26.042,26.042,0,0,0,6.973-5.352c0-.156-.125-.348-.285-.348s-.352.125-.543.508C5.129-3.375,4.2-1.145,3.25.7a4.257,4.257,0,0,1-1.5,1.977C.32-.062,2.1-9.969,2.992-13.184c.1-.32.926-2.164-.125-2.164-.828,0-1.117,1.59-1.4,2.516A44.766,44.766,0,0,0,.063-2.453Zm0,0" transform="translate(314.574 163.536)" fill="#545454"/>
        </g>
      </g>
    </g>
    <g id="Group_310" data-name="Group 310">
      <g id="Group_309" data-name="Group 309">
        <g id="Group_308" data-name="Group 308">
          <path id="Path_613" data-name="Path 613" d="M1.465-5.766A3.647,3.647,0,0,1,3.6-7.961C3.5-6.941,2.262-6.18,1.465-5.766ZM.031-5A2.983,2.983,0,0,0,.766-2.547a2.523,2.523,0,0,0,1.844.762c1.945,0,4.141-1.941,5.32-3.117.285-.352.285-.383.191-.863-.957,0-.445.129-1.754,1.148-.223.16-.316.285-.57.477a6.185,6.185,0,0,1-3.09,1.4,1.469,1.469,0,0,1-1.051-.414A2.009,2.009,0,0,1,1.18-4.871,4.738,4.738,0,0,0,3.82-6.434c.988-1.242.988-2.516-.414-2.516C1.879-8.949.031-6.594.031-5Zm0,0" transform="translate(320.178 163.536)" fill="#545454"/>
        </g>
      </g>
    </g>
    <g id="Group_313" data-name="Group 313">
      <g id="Group_312" data-name="Group 312">
        <g id="Group_311" data-name="Group 311">
          <path id="Path_614" data-name="Path 614" d="M.383,5.254A6.5,6.5,0,0,1,2.07,1.625,9.165,9.165,0,0,1,3.727-.062a7.753,7.753,0,0,1-.191,2.324A6.639,6.639,0,0,1,1.688,5.477,1.7,1.7,0,0,1,.8,5.922C.574,5.922.383,5.73.383,5.254ZM.094-5.16c0,1.687,2.23,2.23,3.219,4.047-.477.762-3.949,3.5-3.949,6.367C-.637,6.4,0,7.008.891,7.008A4.011,4.011,0,0,0,3.98,4.715c2.133-3.633.828-5.48.957-5.926A17.2,17.2,0,0,1,7.609-3.344l2.168-1.5c.73-.414.8-.957.285-.957a2.3,2.3,0,0,0-1.242.512L5.859-3.215A15.5,15.5,0,0,1,4.426-2.1C2.77-4.586.383-4.488,2.07-6.4c.477-.539.383-.379,1.145-.57.191-.8-.094-1.117-.539-1.117A3.178,3.178,0,0,0,.094-5.16Zm0,0" transform="translate(327.087 163.536)" fill="#545454"/>
        </g>
      </g>
    </g>
    <g id="Group_316" data-name="Group 316">
      <g id="Group_315" data-name="Group 315">
        <g id="Group_314" data-name="Group 314">
          <path id="Path_615" data-name="Path 615" d="M3.648,0H4.77V-3.285L8.2-9.125H6.91L4.223-4.512,3.039-6.57,1.551-9.125H.223l3.426,5.84Zm0,0" transform="translate(141.714 201.291)" fill="#d67c33"/>
        </g>
      </g>
    </g>
    <g id="Group_319" data-name="Group 319">
      <g id="Group_318" data-name="Group 318">
        <g id="Group_317" data-name="Group 317">
          <path id="Path_616" data-name="Path 616" d="M5.477.168a4.537,4.537,0,0,0,4.73-4.73,4.537,4.537,0,0,0-4.73-4.73A4.525,4.525,0,0,0,.758-4.562,4.525,4.525,0,0,0,5.477.168ZM1.93-4.562A3.4,3.4,0,0,1,5.477-8.148,3.4,3.4,0,0,1,9.02-4.562,3.4,3.4,0,0,1,5.477-.977,3.4,3.4,0,0,1,1.93-4.562Zm0,0" transform="translate(153.978 201.291)" fill="#d67c33"/>
        </g>
      </g>
    </g>
    <g id="Group_322" data-name="Group 322">
      <g id="Group_321" data-name="Group 321">
        <g id="Group_320" data-name="Group 320">
          <path id="Path_617" data-name="Path 617" d="M4.746.156c2.2,0,3.531-1.445,3.531-3.871v-5.41H7.129v5.332c0,1.863-.82,2.828-2.383,2.828S2.359-1.93,2.359-3.793V-9.125H1.227v5.41C1.227-1.289,2.543.156,4.746.156Zm0,0" transform="translate(168.77 201.291)" fill="#d67c33"/>
        </g>
      </g>
    </g>
    <g id="Group_325" data-name="Group 325">
      <g id="Group_324" data-name="Group 324">
        <g id="Group_323" data-name="Group 323">
          <path id="Path_618" data-name="Path 618" d="M.223,0H1.445l.836-2.074H6.727L7.586,0H8.8L5.043-9.125H3.977Zm2.5-3.141L4.512-7.52,6.3-3.141Zm0,0" transform="translate(189.194 201.291)" fill="#d67c33"/>
        </g>
      </g>
    </g>
    <g id="Group_328" data-name="Group 328">
      <g id="Group_327" data-name="Group 327">
        <g id="Group_326" data-name="Group 326">
          <path id="Path_619" data-name="Path 619" d="M1.328,0H2.477V-3.273H4.484L6.715,0H8.094L5.8-3.391a2.7,2.7,0,0,0,2.152-2.8A2.847,2.847,0,0,0,4.809-9.125H1.328ZM2.477-4.367V-8.031h2.2c1.328,0,2.1.68,2.1,1.84s-.77,1.824-2.1,1.824Zm0,0" transform="translate(202.057 201.291)" fill="#d67c33"/>
        </g>
      </g>
    </g>
    <g id="Group_331" data-name="Group 331">
      <g id="Group_330" data-name="Group 330">
        <g id="Group_329" data-name="Group 329">
          <path id="Path_620" data-name="Path 620" d="M1.328,0H7.012V-1.07H2.477V-4.117H6.543V-5.176H2.477V-8.055H6.871v-1.07H1.328Zm0,0" transform="translate(214.778 201.291)" fill="#d67c33"/>
        </g>
      </g>
    </g>
    <g id="Group_334" data-name="Group 334">
      <g id="Group_333" data-name="Group 333">
        <g id="Group_332" data-name="Group 332">
          <path id="Path_621" data-name="Path 621" d="M1.328,0h3.7c1.84,0,2.984-.977,2.984-2.555A2.2,2.2,0,0,0,6.57-4.73,2.127,2.127,0,0,0,7.754-6.7c0-1.473-1.145-2.426-2.891-2.426H1.328ZM2.477-1.07V-4.133H4.992c1.188,0,1.852.563,1.852,1.527S6.18-1.07,5-1.07Zm0-4.105V-8.055H4.836c1.109,0,1.746.52,1.746,1.445S5.957-5.176,4.836-5.176Zm0,0" transform="translate(233.559 201.291)" fill="#d67c33"/>
        </g>
      </g>
    </g>
    <g id="Group_337" data-name="Group 337">
      <g id="Group_336" data-name="Group 336">
        <g id="Group_335" data-name="Group 335">
          <path id="Path_622" data-name="Path 622" d="M1.328,0H7.012V-1.07H2.477V-4.117H6.543V-5.176H2.477V-8.055H6.871v-1.07H1.328Zm0,0" transform="translate(246.149 201.291)" fill="#d67c33"/>
        </g>
      </g>
    </g>
    <g id="Group_340" data-name="Group 340">
      <g id="Group_339" data-name="Group 339">
        <g id="Group_338" data-name="Group 338">
          <path id="Path_623" data-name="Path 623" d="M.223,0H1.445l.836-2.074H6.727L7.586,0H8.8L5.043-9.125H3.977Zm2.5-3.141L4.512-7.52,6.3-3.141Zm0,0" transform="translate(257.853 201.291)" fill="#d67c33"/>
        </g>
      </g>
    </g>
    <g id="Group_343" data-name="Group 343">
      <g id="Group_342" data-name="Group 342">
        <g id="Group_341" data-name="Group 341">
          <path id="Path_624" data-name="Path 624" d="M4.746.156c2.2,0,3.531-1.445,3.531-3.871v-5.41H7.129v5.332c0,1.863-.82,2.828-2.383,2.828S2.359-1.93,2.359-3.793V-9.125H1.227v5.41C1.227-1.289,2.543.156,4.746.156Zm0,0" transform="translate(270.716 201.291)" fill="#d67c33"/>
        </g>
      </g>
    </g>
    <g id="Group_346" data-name="Group 346">
      <g id="Group_345" data-name="Group 345">
        <g id="Group_344" data-name="Group 344">
          <path id="Path_625" data-name="Path 625" d="M3.531,0H4.68V-8.031H7.754V-9.125H.441v1.094h3.09Zm0,0" transform="translate(284.062 201.291)" fill="#d67c33"/>
        </g>
      </g>
    </g>
    <g id="Group_349" data-name="Group 349">
      <g id="Group_348" data-name="Group 348">
        <g id="Group_347" data-name="Group 347">
          <path id="Path_626" data-name="Path 626" d="M1.328,0H2.477V-9.125H1.328Zm0,0" transform="translate(296.117 201.291)" fill="#d67c33"/>
        </g>
      </g>
    </g>
    <g id="Group_352" data-name="Group 352">
      <g id="Group_351" data-name="Group 351">
        <g id="Group_350" data-name="Group 350">
          <path id="Path_627" data-name="Path 627" d="M1.328,0H2.477V-3.844H6.219V-4.9H2.477V-8.055H6.555v-1.07H1.328Zm0,0" transform="translate(303.768 201.291)" fill="#d67c33"/>
        </g>
      </g>
    </g>
    <g id="Group_355" data-name="Group 355">
      <g id="Group_354" data-name="Group 354">
        <g id="Group_353" data-name="Group 353">
          <path id="Path_628" data-name="Path 628" d="M4.746.156c2.2,0,3.531-1.445,3.531-3.871v-5.41H7.129v5.332c0,1.863-.82,2.828-2.383,2.828S2.359-1.93,2.359-3.793V-9.125H1.227v5.41C1.227-1.289,2.543.156,4.746.156Zm0,0" transform="translate(314.886 201.291)" fill="#d67c33"/>
        </g>
      </g>
    </g>
    <g id="Group_358" data-name="Group 358">
      <g id="Group_357" data-name="Group 357">
        <g id="Group_356" data-name="Group 356">
          <path id="Path_629" data-name="Path 629" d="M1.328,0H6.91V-1.094H2.477V-9.125H1.328Zm0,0" transform="translate(328.231 201.291)" fill="#d67c33"/>
        </g>
      </g>
    </g>
  </g>
</svg>
