<svg xmlns="http://www.w3.org/2000/svg" xmlns:xlink="http://www.w3.org/1999/xlink" width="187.635" height="104.45" viewBox="0 0 187.635 104.45">
  <defs>
    <clipPath id="clip-path">
      <path id="Path_25" data-name="Path 25" d="M180,117h52.879v78H180Zm0,0"/>
    </clipPath>
    <clipPath id="clip-path-2">
      <path id="Path_27" data-name="Path 27" d="M188,107.348h43V141H188Zm0,0"/>
    </clipPath>
    <clipPath id="clip-path-3">
      <path id="Path_29" data-name="Path 29" d="M191,148h22v60.6H191Zm0,0"/>
    </clipPath>
  </defs>
  <g id="Group_57" data-name="Group 57" transform="translate(-755.195 -428.848)">
    <g id="Group_8" data-name="Group 8" transform="translate(666.5 321.5)">
      <g id="Group_7" data-name="Group 7">
        <g id="Group_6" data-name="Group 6">
          <path id="Path_8" data-name="Path 8" d="M15.894,3.406c.559,0,1.133-.016,1.723-.055A43.21,43.21,0,0,0,39.2-3.82a34.312,34.312,0,0,0,3.965.227c4.7,0,9.766-1.027,13.652-4.418.066-.055.078-.094.078-.121,0-.055-.039-.082-.105-.082a.551.551,0,0,0-.27.109,20.284,20.284,0,0,1-12.727,3.98,32.4,32.4,0,0,1-3.777-.23c.453-.32.906-.625,1.359-.961,7.7-5.609,13.973-13.73,16.215-23.227a13.939,13.939,0,0,0,.359-3.082c0-3.461-1.359-6.867-4.727-7.789a6.961,6.961,0,0,0-1.789-.238c-4.82,0-9.148,5.273-14.316,10.3l-2.578,2.469A165.285,165.285,0,0,0,45.1-42.242a.17.17,0,0,0,.027-.109c0-.426-1.082-1.121-1.644-1.121a.364.364,0,0,0-.238.078c-4.234,4.09-10.684,3.754-16.254,4.957-5.785,1.242-9.6,4.555-9.6,9.977a13.65,13.65,0,0,0,.105,1.6c.039.293.106.629.172.629.027,0,.055-.039.07-.16-.027-.375-.027-.734-.027-1.094a8.617,8.617,0,0,1,3.352-7.426c2.121-1.7,5.262-2.34,8.066-2.82,4.113-.719,8.348-.492,12.449-2.324-3.207,6.012-6.078,9.445-9.7,13.973a81.308,81.308,0,0,1-8.465,9.066q-3.445,2.807-7.027,5.383A22.631,22.631,0,0,0,8.48-13.356a9.431,9.431,0,0,0-5.41,1.524,5.914,5.914,0,0,0-2.7,5.1A8.093,8.093,0,0,0,1.551-2.605C3.551.68,9.07,3.406,15.894,3.406Zm20.141-8.43c-6.68-1.4-13.238-4.18-18.406-6.141a90.382,90.382,0,0,0,15.3-12.664c7.105-7.145,13.73-15.211,18.539-15.211a3.85,3.85,0,0,1,2.4.828c1.43,1.109,1.926,3.395,1.926,5.5a12.161,12.161,0,0,1-.32,2.855c-2.1,8.309-8,15.68-14.492,21.051C39.387-7.465,37.742-6.2,36.035-5.023ZM14.449,2.1C8.84,2.1,4.969.52,2.605-2.352a6.384,6.384,0,0,1-1.4-4c0-2.406,1.359-4.918,4.82-6.039a8.455,8.455,0,0,1,2.684-.4,21.934,21.934,0,0,1,7.121,1.563c-1.148.8-2.3,1.574-3.473,2.336-.055.039-.082.066-.082.078,0,.043.082.055.2.055A5.174,5.174,0,0,0,14.41-9.23c.133-.078.254-.172.4-.254.652-.359,1.4-.8,2.215-1.309C22.156-8.855,28.152-6,34.98-4.516l.238.043A36.892,36.892,0,0,1,15.934,2.059C15.426,2.082,14.934,2.1,14.449,2.1Zm0,0" transform="translate(88.32 185.386)" fill="#e2b759"/>
        </g>
      </g>
    </g>
    <g id="Group_11" data-name="Group 11" transform="translate(666.5 321.5)">
      <g id="Group_10" data-name="Group 10">
        <g id="Group_9" data-name="Group 9">
          <path id="Path_9" data-name="Path 9" d="M9-.949c3.582,0,9.965-5.1,12.035-7.145A.192.192,0,0,0,21.1-8.2c0-.055-.055-.094-.121-.094a.406.406,0,0,0-.277.133C18.176-5.691,12.289-1.617,9.965-1.617A1.02,1.02,0,0,1,8.84-2.711a6.283,6.283,0,0,1,.895-2.445c.91-1.723,3.566-4.7,4.516-6.051a1.252,1.252,0,0,0,.227-.734c0-.762-.613-1.508-1.055-1.508a.318.318,0,0,0-.238.094c-.363.332-1.926,1.922-2.219,2.242A54.4,54.4,0,0,1,5.676-6.09C4.02-4.848,1.574-3.473.359-3.473c-.453,0-.734-.187-.734-.668A3.985,3.985,0,0,1,.2-5.8c1.258-2.363,3.809-4.527,4.434-6.211a1.049,1.049,0,0,0,.109-.481c0-.734-.547-1.668-1.055-1.668a.455.455,0,0,0-.242.078,5.2,5.2,0,0,1-1,1.8C1.711-11.352.547-9.91-.094-9-1.242-7.359-2.137-5.742-2.137-4.516A1.731,1.731,0,0,0-1.07-2.832,2.523,2.523,0,0,0,.082-2.59C3-2.59,7.277-6.437,10.4-9.523,8.7-7.117,6.957-4.379,6.957-2.656,6.957-1.6,7.668-.949,9-.949Zm0,0" transform="translate(144.385 185.386)" fill="#e2b759"/>
        </g>
      </g>
    </g>
    <g id="Group_14" data-name="Group 14" transform="translate(666.5 321.5)">
      <g id="Group_13" data-name="Group 13">
        <g id="Group_12" data-name="Group 12">
          <path id="Path_10" data-name="Path 10" d="M7.559-36.449a.14.14,0,0,0,.094-.039,6.571,6.571,0,0,0,1.5-3.687c0-.6-.215-1.027-.789-1.027l-.187.016a1.247,1.247,0,0,0-1.039,1.281c0,.414.188.762.52.762l.121-.016a.122.122,0,0,1,.121.121l.012.254a5.043,5.043,0,0,1-.48,2.137l-.012.055A.147.147,0,0,0,7.559-36.449Zm0,0" transform="translate(164.926 185.386)" fill="#e2b759"/>
        </g>
      </g>
    </g>
    <g id="Group_17" data-name="Group 17" transform="translate(666.5 321.5)">
      <g id="Group_16" data-name="Group 16">
        <g id="Group_15" data-name="Group 15">
          <path id="Path_11" data-name="Path 11" d="M9-.949c3.582,0,9.965-5.1,12.035-7.145A.192.192,0,0,0,21.1-8.2c0-.055-.055-.094-.121-.094a.406.406,0,0,0-.277.133C18.176-5.691,12.289-1.617,9.965-1.617A1.02,1.02,0,0,1,8.84-2.711a6.283,6.283,0,0,1,.895-2.445c.91-1.723,3.566-4.7,4.516-6.051a1.252,1.252,0,0,0,.227-.734c0-.762-.613-1.508-1.055-1.508a.318.318,0,0,0-.238.094c-.363.332-1.926,1.922-2.219,2.242A54.4,54.4,0,0,1,5.676-6.09C4.02-4.848,1.574-3.473.359-3.473c-.453,0-.734-.187-.734-.668A3.985,3.985,0,0,1,.2-5.8c1.258-2.363,3.809-4.527,4.434-6.211a1.049,1.049,0,0,0,.109-.481c0-.734-.547-1.668-1.055-1.668a.455.455,0,0,0-.242.078,5.2,5.2,0,0,1-1,1.8C1.711-11.352.547-9.91-.094-9-1.242-7.359-2.137-5.742-2.137-4.516A1.731,1.731,0,0,0-1.07-2.832,2.523,2.523,0,0,0,.082-2.59C3-2.59,7.277-6.437,10.4-9.523,8.7-7.117,6.957-4.379,6.957-2.656,6.957-1.6,7.668-.949,9-.949Zm0,0" transform="translate(223.015 185.386)" fill="#e2b759"/>
        </g>
      </g>
    </g>
    <g id="Group_20" data-name="Group 20" transform="translate(666.5 321.5)">
      <g id="Group_19" data-name="Group 19">
        <g id="Group_18" data-name="Group 18">
          <path id="Path_12" data-name="Path 12" d="M1.121-1.777c2.363,0,4.914-1.109,5.449-3.312a16.929,16.929,0,0,0,3.02.617l.84.023c3.676,0,4.9-1.359,5.973-3.578a.283.283,0,0,0,.094-.145c0-.027-.027-.043-.07-.043a.53.53,0,0,0-.254.109c-.785,1.508-1.789,3.363-5.395,3.363-.375,0-.762-.027-1.187-.066a20.842,20.842,0,0,1-2.953-.613A4.689,4.689,0,0,0,6.7-6.277c0-1.457-.531-2.672-.531-3.941A3.743,3.743,0,0,1,6.7-12.168a4.925,4.925,0,0,1,1.75-1.613,3.946,3.946,0,0,1,1.91-.508c1.242,0,2.152.586,2.152,1.563-.066,2.348-2.7,3.336-2.7,3.551,0,.027.027.039.066.039a5.242,5.242,0,0,0,3.246-3.1,2.213,2.213,0,0,0,.121-.68c0-1.5-1.777-2.457-3.191-2.578l-.551-.027a5.467,5.467,0,0,0-4.633,2.258C2.953-11.887,1.309-9.656-.641-7.828c-.094.07-.133.121-.133.16,0,.109.227.148.227.148,1.7-1.4,3.086-3.258,4.859-4.633a4.5,4.5,0,0,0-.16,1.16c0,1.348.551,2.8.551,4.152a3.659,3.659,0,0,1-.094.855,18.676,18.676,0,0,0-2.887-.6C1.484-6.6,1.23-6.609.949-6.609A4.738,4.738,0,0,0-2.711-5.3a1.448,1.448,0,0,0-.387.988A2.113,2.113,0,0,0-2.2-2.738,5.532,5.532,0,0,0,1.121-1.777ZM0-2.43A3.133,3.133,0,0,1-1.828-3a1.494,1.494,0,0,1-.629-1.215,1.349,1.349,0,0,1,.309-.871A3.737,3.737,0,0,1,.816-6.211a15.411,15.411,0,0,1,3.7.547L4.5-5.609A5.318,5.318,0,0,1,0-2.43Zm0,0" transform="translate(243.556 185.386)" fill="#e2b759"/>
        </g>
      </g>
    </g>
    <g id="Group_23" data-name="Group 23" transform="translate(666.5 321.5)">
      <g id="Group_22" data-name="Group 22">
        <g id="Group_21" data-name="Group 21">
          <path id="Path_13" data-name="Path 13" d="M2.777-1.777c3.82,0,8.348-2.43,14.012-6.516.039-.027.066-.055.066-.066a.572.572,0,0,0-.242.066C13.234-6.437,10.269-4.34,6.6-3.059a12.851,12.851,0,0,1-3.848.723c-1.6,0-2.684-.551-2.684-2.07A5.162,5.162,0,0,1,.934-7,1.571,1.571,0,0,0,2.5-6.25,10.392,10.392,0,0,0,7.719-8.281c1.176-.855,3.18-2.965,3.18-4.582,0-.719-.414-1.348-1.484-1.707a4.183,4.183,0,0,0-1.293-.2c-4.262,0-9.844,5.9-9.844,9.746,0,1.633,1,2.9,3.512,3.2A8.246,8.246,0,0,0,2.777-1.777ZM2.512-6.559c-.684,0-1.164-.266-1.27-.895,2.07-2.992,6.344-5.715,8.012-5.715.4,0,.7.121.7.652,0,.828-.68,2.484-2.965,4.09A9.28,9.28,0,0,1,2.512-6.559ZM7.559-16.707c.629,0,1.992-.723,3.754-2.8a.1.1,0,0,0,.012-.055c0-.215-.68-.629-.973-.629a.221.221,0,0,0-.094.027A15.686,15.686,0,0,0,8.7-18.59c-.27.254-.523.492-.8.719-.254.227-.7.563-.7.871C7.2-16.855,7.277-16.707,7.559-16.707Zm0,0" transform="translate(259.475 185.386)" fill="#e2b759"/>
        </g>
      </g>
    </g>
    <g id="Group_26" data-name="Group 26" transform="translate(666.5 321.5)">
      <g id="Group_25" data-name="Group 25">
        <g id="Group_24" data-name="Group 24">
          <path id="Path_14" data-name="Path 14" d="M1.719-1.141V-4.473H2.09A1.579,1.579,0,0,1,3.7-2.809,1.589,1.589,0,0,1,2.09-1.141ZM.5-5.621V0H2.164a2.748,2.748,0,0,0,2.8-2.809,2.754,2.754,0,0,0-2.8-2.813Zm0,0" transform="translate(127.84 211.665)"/>
        </g>
      </g>
    </g>
    <g id="Group_29" data-name="Group 29" transform="translate(666.5 321.5)">
      <g id="Group_28" data-name="Group 28">
        <g id="Group_27" data-name="Group 27">
          <path id="Path_15" data-name="Path 15" d="M4.836-2.82A1.722,1.722,0,0,1,3.184-1.156,1.723,1.723,0,0,1,1.527-2.82,1.715,1.715,0,0,1,3.184-4.473,1.714,1.714,0,0,1,4.836-2.82Zm1.238.012A2.949,2.949,0,0,0,3.184-5.7,2.953,2.953,0,0,0,.289-2.809,2.952,2.952,0,0,0,3.184.082,2.948,2.948,0,0,0,6.074-2.809Zm0,0" transform="translate(137.338 211.665)"/>
        </g>
      </g>
    </g>
    <g id="Group_32" data-name="Group 32" transform="translate(666.5 321.5)">
      <g id="Group_31" data-name="Group 31">
        <g id="Group_30" data-name="Group 30">
          <path id="Path_16" data-name="Path 16" d="M3.555-2.148H2.133l.711-2ZM5.652,0,3.371-5.621H2.324L.043,0H1.371l.406-1.133H3.918L4.324,0Zm0,0" transform="translate(154.266 211.665)"/>
        </g>
      </g>
    </g>
    <g id="Group_35" data-name="Group 35" transform="translate(666.5 321.5)">
      <g id="Group_34" data-name="Group 34">
        <g id="Group_33" data-name="Group 33">
          <path id="Path_17" data-name="Path 17" d="M2.68-.875A1.047,1.047,0,0,1,1.5-1.852H.246C.258-.48,1.387.133,2.629.133c1.148,0,2.332-.488,2.332-1.813,0-2.141-3.25-1.422-3.25-2.422,0-.418.488-.586.836-.586.617,0,.957.191,1.023.777h1.2C4.727-5.191,3.688-5.7,2.531-5.7,1.5-5.7.43-5.156.43-4c0,2.074,3.25,1.371,3.25,2.461C3.68-1.035,3.066-.875,2.68-.875Zm0,0" transform="translate(164.21 211.665)"/>
        </g>
      </g>
    </g>
    <g id="Group_38" data-name="Group 38" transform="translate(666.5 321.5)">
      <g id="Group_37" data-name="Group 37">
        <g id="Group_36" data-name="Group 36">
          <path id="Path_18" data-name="Path 18" d="M2.141,0H3.379V-2.687L5.457-5.621H3.977L2.762-3.68,1.547-5.621H.066L2.141-2.687Zm0,0" transform="translate(179.981 211.665)"/>
        </g>
      </g>
    </g>
    <g id="Group_41" data-name="Group 41" transform="translate(666.5 321.5)">
      <g id="Group_40" data-name="Group 40">
        <g id="Group_39" data-name="Group 39">
          <path id="Path_19" data-name="Path 19" d="M4.836-2.82A1.722,1.722,0,0,1,3.184-1.156,1.723,1.723,0,0,1,1.527-2.82,1.715,1.715,0,0,1,3.184-4.473,1.714,1.714,0,0,1,4.836-2.82Zm1.238.012A2.949,2.949,0,0,0,3.184-5.7,2.953,2.953,0,0,0,.289-2.809,2.952,2.952,0,0,0,3.184.082,2.948,2.948,0,0,0,6.074-2.809Zm0,0" transform="translate(189.751 211.665)"/>
        </g>
      </g>
    </g>
    <g id="Group_44" data-name="Group 44" transform="translate(666.5 321.5)">
      <g id="Group_43" data-name="Group 43">
        <g id="Group_42" data-name="Group 42">
          <path id="Path_20" data-name="Path 20" d="M3.777-5.621v3.25c0,.777-.23,1.215-1.082,1.215S1.613-1.594,1.613-2.371v-3.25H.371v3.43A2.075,2.075,0,0,0,2.7.082a2.074,2.074,0,0,0,2.32-2.273v-3.43Zm0,0" transform="translate(200.365 211.665)"/>
        </g>
      </g>
    </g>
    <g id="Group_47" data-name="Group 47" transform="translate(666.5 321.5)">
      <g id="Group_46" data-name="Group 46">
        <g id="Group_45" data-name="Group 45">
          <path id="Path_21" data-name="Path 21" d="M2.68-.875A1.047,1.047,0,0,1,1.5-1.852H.246C.258-.48,1.387.133,2.629.133c1.148,0,2.332-.488,2.332-1.813,0-2.141-3.25-1.422-3.25-2.422,0-.418.488-.586.836-.586.617,0,.957.191,1.023.777h1.2C4.727-5.191,3.688-5.7,2.531-5.7,1.5-5.7.43-5.156.43-4c0,2.074,3.25,1.371,3.25,2.461C3.68-1.035,3.066-.875,2.68-.875Zm0,0" transform="translate(216.318 211.665)"/>
        </g>
      </g>
    </g>
    <g id="Group_50" data-name="Group 50" transform="translate(666.5 321.5)">
      <g id="Group_49" data-name="Group 49">
        <g id="Group_48" data-name="Group 48">
          <path id="Path_22" data-name="Path 22" d="M3.555-2.148H2.133l.711-2ZM5.652,0,3.371-5.621H2.324L.043,0H1.371l.406-1.133H3.918L4.324,0Zm0,0" transform="translate(225.774 211.665)"/>
        </g>
      </g>
    </g>
    <g id="Group_53" data-name="Group 53" transform="translate(666.5 321.5)">
      <g id="Group_52" data-name="Group 52">
        <g id="Group_51" data-name="Group 51">
          <path id="Path_23" data-name="Path 23" d="M2.141,0H3.379V-2.687L5.457-5.621H3.977L2.762-3.68,1.547-5.621H.066L2.141-2.687Zm0,0" transform="translate(235.718 211.665)"/>
        </g>
      </g>
    </g>
    <g id="Group_54" data-name="Group 54" transform="translate(666.5 321.5)" clip-path="url(#clip-path)">
      <path id="Path_24" data-name="Path 24" d="M223,185.473c1.961.015,3.317-.035,4.664.117a5.793,5.793,0,0,1,1.965.5A1.985,1.985,0,0,1,230.844,188a5.691,5.691,0,0,1-.453,1.824,19.294,19.294,0,0,1-2.754,4.383c-.043.055-.09.184-.176.1s.039-.141.082-.2a21.713,21.713,0,0,0,2.094-3.183,8.348,8.348,0,0,0,.8-2.227,2.475,2.475,0,0,0,.028-.883,1.369,1.369,0,0,0-.817-1.074,4.1,4.1,0,0,0-1.64-.348,25.773,25.773,0,0,0-3.2.145,63.776,63.776,0,0,1-6.68.4,14.219,14.219,0,0,1-5.012-.875,5.831,5.831,0,0,1-3.164-2.672,3.978,3.978,0,0,1-.164-3.57,10.185,10.185,0,0,1,2.145-3,43.246,43.246,0,0,1,5.156-4.437c2.242-1.688,4.551-3.278,6.777-4.985a33.139,33.139,0,0,0,5.457-5.058,9.975,9.975,0,0,0,1.336-2.094,4.216,4.216,0,0,0-.1-4.066,9.964,9.964,0,0,0-2.606-2.946,20.729,20.729,0,0,0-9.176-4.058,64.1,64.1,0,0,0-6.961-.86c-3.5-.289-7-.484-10.476-1.031a39.59,39.59,0,0,1-7.977-1.9,19.064,19.064,0,0,1-7.855-5.312,16.055,16.055,0,0,1-2.09-3.117,26.353,26.353,0,0,1-2.273-5.6,18.964,18.964,0,0,1-.645-5.508,17.421,17.421,0,0,1,1.2-5.465,8.587,8.587,0,0,1,2.121-2.91c.067-.062.125-.133.2-.187s.136-.223.254-.113c.1.093-.036.171-.09.242-.235.312-.473.617-.711.922a8.527,8.527,0,0,0-1.352,3.043,14.261,14.261,0,0,0-.687,5.058,25.1,25.1,0,0,0,.75,4.8,24.684,24.684,0,0,0,1.957,4.648,16.971,16.971,0,0,0,10.441,8.418,47.772,47.772,0,0,0,9.047,1.836c3.234.383,6.484.625,9.727.93a50.063,50.063,0,0,1,7.972,1.238,20.6,20.6,0,0,1,7.621,3.629,10.7,10.7,0,0,1,2.688,2.985,5.607,5.607,0,0,1,.074,5.953,18.571,18.571,0,0,1-3.266,4.1,92.879,92.879,0,0,1-7.246,6.336,75.505,75.505,0,0,0-5.812,5.008,21.767,21.767,0,0,0-2.641,3.043,5.376,5.376,0,0,0-.89,1.984,1.848,1.848,0,0,0,.351,1.536,4.736,4.736,0,0,0,2.3,1.554,16.045,16.045,0,0,0,3.883.774c1.734.187,3.476.234,4.6.254" fill="#744d2e"/>
    </g>
    <g id="Group_55" data-name="Group 55" transform="translate(666.5 321.5)" clip-path="url(#clip-path-2)">
      <path id="Path_26" data-name="Path 26" d="M215.875,107.355a20.745,20.745,0,0,1,5.82.661,11.477,11.477,0,0,1,7.293,5.511,12.007,12.007,0,0,1,1.157,9.246,12.209,12.209,0,0,1-3.473,5.4,17.428,17.428,0,0,1-10.012,4.859,11.638,11.638,0,0,1-3.332.106,4.624,4.624,0,0,1-1.476-.446,3.583,3.583,0,0,1-.2-6.257,4.382,4.382,0,0,1,1.821-.676,1.758,1.758,0,0,1,1.011.129.816.816,0,0,1,.43,1c-.043.148-.105.222-.23.062a.572.572,0,0,0-.684-.187,4.664,4.664,0,0,0-2.7,2.062,1.89,1.89,0,0,0,1,2.746,4.9,4.9,0,0,0,1.7.317,17.181,17.181,0,0,0,5.016-.719,17.733,17.733,0,0,0,9.308-6.734,7.617,7.617,0,0,0,1.277-4.262,12.2,12.2,0,0,0-1.667-6.352,11.014,11.014,0,0,0-6.481-4.883,17.894,17.894,0,0,0-5.508-.7,40.347,40.347,0,0,0-20.367,5.508,15.67,15.67,0,0,0-2.8,2.047,9.841,9.841,0,0,0-2.9,5.008,16.708,16.708,0,0,0-.231,6.886,9.672,9.672,0,0,0,1.743,4.122,31.876,31.876,0,0,0,2.246,3.05,20.341,20.341,0,0,0,5.16,4.149,13.049,13.049,0,0,0,4.824,1.418c.332.035.664.1,1,.148.094.012.195.031.184.149s-.11.121-.2.136a8.474,8.474,0,0,1-2.063-.05,13.012,13.012,0,0,1-6.707-2.364,16.329,16.329,0,0,1-4.117-4.16c-.531-.793-1.094-1.566-1.664-2.336a7.467,7.467,0,0,1-1.485-4.051,25.663,25.663,0,0,1,.1-5.738A12.2,12.2,0,0,1,191.215,116a14.43,14.43,0,0,1,3.59-3,36.51,36.51,0,0,1,11.519-4.555,48.233,48.233,0,0,1,9.551-1.094" fill="#744d2e"/>
    </g>
    <g id="Group_56" data-name="Group 56" transform="translate(666.5 321.5)" clip-path="url(#clip-path-3)">
      <path id="Path_28" data-name="Path 28" d="M191.621,190.844a14.977,14.977,0,0,1,2.145-8.125,28.929,28.929,0,0,1,4.468-5.59c1.868-1.9,3.871-3.645,5.84-5.43a45.884,45.884,0,0,0,4.3-4.207,14.666,14.666,0,0,0,2.422-3.89,6.573,6.573,0,0,0-.648-6.6,4.46,4.46,0,0,0-1.954-1.742,50.128,50.128,0,0,0-6.019-2.11c-1.633-.441-3.317-.609-4.945-1.047-.481-.128-.969-.242-1.442-.394a4.766,4.766,0,0,1-2.508-1.8,1.119,1.119,0,0,1,0-1.273.477.477,0,0,1,.215-.2c.242-.122.418-.036.395.23a.744.744,0,0,0,.535.785c.465.2.945.36,1.418.535a14.007,14.007,0,0,0,2.707.422,26.448,26.448,0,0,1,3.633.676c.847.262,1.672.594,2.508.894,1.285.469,2.562.954,3.8,1.536a7.647,7.647,0,0,1,3.766,4.023,8.333,8.333,0,0,1-.2,7.258,19.294,19.294,0,0,1-4.1,5.48c-1.757,1.715-3.632,3.313-5.433,4.989a60.354,60.354,0,0,0-6.043,6.25,15.081,15.081,0,0,0-3.324,6.539,13.761,13.761,0,0,0,.765,7.769,17.663,17.663,0,0,0,5.574,7.364,36.288,36.288,0,0,0,8.555,5.148.162.162,0,0,1,.047.016c.059.046.2.039.156.144s-.144.008-.211-.016a32.72,32.72,0,0,1-4.48-2.187,35.367,35.367,0,0,1-6.524-4.617,16.745,16.745,0,0,1-4.355-6.09,14.341,14.341,0,0,1-1.051-4.742" fill="#744d2e"/>
    </g>
    <path id="Path_30" data-name="Path 30" d="M175.98,177.258a19.6,19.6,0,0,1-4.609-.254,8.345,8.345,0,0,1-4.883-2.676,10.432,10.432,0,0,1-1.836-3.527,10.94,10.94,0,0,1-.1-6.461,24,24,0,0,1,4.508-8.551,25,25,0,0,1,3.82-3.758,24.494,24.494,0,0,0,2.558-2.258c.129-.14.254-.285.383-.425a2.4,2.4,0,0,0,.664-1.473,24.429,24.429,0,0,0,.141-4.309c-.02-.2-.059-.39-.086-.589-.016-.118-.074-.278.1-.317.156-.039.211.113.257.231a6.961,6.961,0,0,1,.4,1.675,16.442,16.442,0,0,1-.031,2.672c-.016.348-.059.7-.071,1.051a2.739,2.739,0,0,1-.562,1.574,21.317,21.317,0,0,1-2.379,2.594,38.845,38.845,0,0,0-5.719,6.949,21.242,21.242,0,0,0-2.883,7.039,9.506,9.506,0,0,0,.883,6.145,5.577,5.577,0,0,0,3.2,2.918,9.608,9.608,0,0,0,2.813.578,31.258,31.258,0,0,0,3.965-.133,17.331,17.331,0,0,1,4.1.078,6.963,6.963,0,0,1,1.286.356,4.157,4.157,0,0,1,2.8,3.629,11.529,11.529,0,0,1-.777,5.484,55.034,55.034,0,0,1-3.129,6.734,3.782,3.782,0,0,1-.555.766q-1.194,1.347-2.4,2.688c-.055.062-.109.187-.2.136s-.02-.164,0-.242c.4-1.234.805-2.465,1.207-3.7a5.134,5.134,0,0,1,.449-.922,59.281,59.281,0,0,0,3-5.871,11.387,11.387,0,0,0,1.055-4.082,5.038,5.038,0,0,0-.094-1.207,2.726,2.726,0,0,0-1.777-2.09,7.974,7.974,0,0,0-2.774-.484c-.906-.032-1.812,0-2.719.031" transform="translate(666.5 321.5)" fill="#744d2e"/>
    <path id="Path_31" data-name="Path 31" d="M180.777,156.742a.068.068,0,0,1,0,.028c.239-.165.485-.309.707-.485,0-.078-.007-.152-.011-.222-.074-2.684-.067-5.368.051-8.047.136-3.043.4-6.071.7-9.1a10.832,10.832,0,0,0,.07-2.613c-.027-.176,0-.469-.188-.485-.175-.011-.156.278-.2.446-.32,1.3-.4,2.632-.6,3.945-.207,1.375-.254,2.762-.352,4.144-.117,1.661-.262,3.321-.227,4.989q.083,3.7.047,7.4" transform="translate(666.5 321.5)" fill="#744d2e"/>
    <path id="Path_32" data-name="Path 32" d="M182.98,155.813a14.583,14.583,0,0,1,1.836-1.477,10.04,10.04,0,0,0,.985-.676,3.68,3.68,0,0,1,1.765-.84,1.261,1.261,0,0,0,.536-.187c.168-.113.343-.246.257-.481a.4.4,0,0,0-.519-.23,9.343,9.343,0,0,0-1.184.305,1.4,1.4,0,0,0-.453.246,21.717,21.717,0,0,1-1.867,1.394,6.663,6.663,0,0,0-1.352,1.207,26.465,26.465,0,0,1-2.332,1.973,4.713,4.713,0,0,1-2.742.984c-.109.012-.3-.086-.312.051-.016.16.2.152.316.172a3.664,3.664,0,0,0,2.445-.488,24.372,24.372,0,0,0,2.621-1.953" transform="translate(666.5 321.5)" fill="#744d2e"/>
    <path id="Path_33" data-name="Path 33" d="M192.719,177.871c-.727-.719-1.414-1.476-2.117-2.215a40.184,40.184,0,0,1-6.114-8,23.932,23.932,0,0,1-2.961-10.433.561.561,0,0,1,0-.082,3.7,3.7,0,0,0-.718.566,22.2,22.2,0,0,0,2.574,9.633,25.434,25.434,0,0,0,3.09,4.434,50.077,50.077,0,0,0,5.836,5.96,2.059,2.059,0,0,0,.531.4c.058-.148-.059-.2-.121-.254" transform="translate(666.5 321.5)" fill="#744d2e"/>
    <path id="Path_34" data-name="Path 34" d="M189.906,167.957a.473.473,0,0,0,.262.074,8.281,8.281,0,0,0,1.785-.078c.406-.027.785-.2,1.2-.191.824.023,1.645-.071,2.473-.067a6.749,6.749,0,0,0,1.074-.14c.055-.008.137.008.137-.094a2.707,2.707,0,0,1-1.4-.824c-.2-.219-.489-.313-.661-.555-.047-.062-.129-.051-.2-.051-.277,0-.379.215-.5.4a1.256,1.256,0,0,1-1.879.187c-.14-.152-.211-.137-.339-.019a8.339,8.339,0,0,1-1.676,1.148C190.078,167.8,189.961,167.84,189.906,167.957Zm8.883-.519a1.4,1.4,0,0,1-.816.164,3.32,3.32,0,0,0-1.606.316,2.76,2.76,0,0,1-.976.215c-.828.035-1.641.172-2.461.262-.645.07-1.293.144-1.938.218a3.049,3.049,0,0,1-1.781-.355.692.692,0,0,0-.344-.047,1.71,1.71,0,0,1-.922-.172c-.164-.09-.316-.211-.269-.422s.242-.262.429-.238a3.8,3.8,0,0,0,3.18-1.4,3.533,3.533,0,0,1,.387-.336.729.729,0,0,1,1.156.27c.195.375.434.441.785.2a2.822,2.822,0,0,0,.379-.3,1.043,1.043,0,0,1,1.289-.094c.442.25.766.629,1.2.883a5.9,5.9,0,0,0,1.222.515,7.471,7.471,0,0,0,1.09.321" transform="translate(666.5 321.5)" fill="#744d2e"/>
    <path id="Path_35" data-name="Path 35" d="M186.906,154.781c-.023-.023-.047-.047-.074-.07-.2.219-.383.453-.6.656a.4.4,0,0,1-.64-.023c-.1-.114-.164-.1-.266-.031s-.234.132-.355.2l.41.48c.051.059.14.137.176.078.117-.2.367-.16.5-.293A4.822,4.822,0,0,0,186.906,154.781Zm.563-1.621a4.041,4.041,0,0,1,.976.238c.051.02.11.036.11.1s-.063.082-.11.1c-.168.062-.34.121-.511.179a.2.2,0,0,0-.153.239,1.535,1.535,0,0,1-.429,1.207,7.869,7.869,0,0,0-.872,1.066.936.936,0,0,1-1.539.016,1.676,1.676,0,0,1-.25-.352c-.093-.25-.226-.207-.41-.113a5.01,5.01,0,0,0-.824.562,1.352,1.352,0,0,1-.578.293c-.086.016-.191.051-.246-.043s.043-.16.1-.222a8.3,8.3,0,0,1,1.789-1.516,14.506,14.506,0,0,0,1.309-1.051,3.159,3.159,0,0,1,1.453-.691c.055,0,.106-.008.184-.012" transform="translate(666.5 321.5)" fill="#744d2e"/>
    <path id="Path_36" data-name="Path 36" d="M194.969,168.7a1.817,1.817,0,0,1-.75.547,3.3,3.3,0,0,0-1.43.789,1.651,1.651,0,0,1-1.062.6.3.3,0,0,0-.125.047,2.077,2.077,0,0,1-1.735.07,1.1,1.1,0,0,1-.7-.516c-.27-.461-.715-.789-.961-1.273-.07-.137-.207-.25-.07-.4a.473.473,0,0,1,.558-.164.756.756,0,0,1,.3.261c.258.313.531.614.77.942a1.064,1.064,0,0,0,1,.429,2.949,2.949,0,0,0,1.835-.558,1.4,1.4,0,0,1,.458-.235,2.541,2.541,0,0,0,.718-.3.293.293,0,0,1,.051-.024c.367-.113.773,0,1.137-.211" transform="translate(666.5 321.5)" fill="#744d2e"/>
    <path id="Path_37" data-name="Path 37" d="M187.8,149.824c.058.012.16-.039.183.051s-.078.1-.136.137c-.36.187-.719.379-1.094.539a9.7,9.7,0,0,0-2.148,1.2,12.691,12.691,0,0,1-1.219.758,1.367,1.367,0,0,1-.563.2c-.277.024-.386-.129-.273-.383a1.178,1.178,0,0,1,.418-.488,6.6,6.6,0,0,1,1.223-.7c.792-.328,1.582-.668,2.371-1.008a3.537,3.537,0,0,1,1.238-.3" transform="translate(666.5 321.5)" fill="#744d2e"/>
    <path id="Path_38" data-name="Path 38" d="M191.914,162.355c.223.04.453.079.684.122.136.023.136.1.058.187a1.734,1.734,0,0,1-1.285.707.922.922,0,0,1-.293-.039c-.23-.074-.426-.2-.418-.465s.223-.371.461-.406c.262-.035.52-.066.793-.106" transform="translate(666.5 321.5)" fill="#744d2e"/>
  </g>
</svg>
